<svg width="294" height="83" viewBox="0 0 294 83" fill="none" xmlns="http://www.w3.org/2000/svg">
<path d="M40.2735 28.8006L72.4643 58.1005L54.6702 69.8794L40.2735 28.8006Z" fill="#FFE45E"/>
<path d="M15.6875 63.125C13.7292 63.125 11.8958 62.6042 10.1875 61.5625C8.52083 60.5208 7.04167 59.0208 5.75 57.0625C4.45833 55.1042 3.4375 52.7292 2.6875 49.9375C1.97917 47.1042 1.625 43.9167 1.625 40.375C1.625 36.8333 2.10417 33.5417 3.0625 30.5C4.02083 27.4583 5.29167 24.8125 6.875 22.5625C8.45833 20.3125 10.2917 18.5625 12.375 17.3125C14.5 16.0208 16.6875 15.375 18.9375 15.375C21.2292 15.375 23.1042 15.6875 24.5625 16.3125C26.0208 16.9375 27.1667 17.7917 28 18.875C28.8333 19.9167 29.3958 21.1458 29.6875 22.5625C29.9792 23.9792 30.0833 25.4583 30 27C29.9583 28 29.75 29.0208 29.375 30.0625C29 31.0625 28.5417 31.9583 28 32.75C27.4583 33.5417 26.875 34.1458 26.25 34.5625C25.625 34.9792 25.0208 35.0625 24.4375 34.8125C23.9792 34.6875 23.4792 34.5417 22.9375 34.375C21.9375 34.0417 20.75 33.5625 19.375 32.9375C20.2083 32.3542 20.9792 31.6875 21.6875 30.9375C22.2708 30.2708 22.7917 29.4583 23.25 28.5C23.75 27.5417 24 26.4375 24 25.1875C24 24.1042 23.8542 23.1875 23.5625 22.4375C23.3125 21.6458 22.9583 21.0208 22.5 20.5625C22.0833 20.0625 21.6042 19.7083 21.0625 19.5C20.5208 19.25 19.9792 19.125 19.4375 19.125C18.0625 19.125 16.6875 19.6667 15.3125 20.75C13.9792 21.8333 12.7708 23.3542 11.6875 25.3125C10.6458 27.2292 9.79167 29.5208 9.125 32.1875C8.45833 34.8542 8.125 37.75 8.125 40.875C8.125 43.3333 8.35417 45.625 8.8125 47.75C9.3125 49.8333 9.95833 51.6458 10.75 53.1875C11.5417 54.6875 12.4583 55.875 13.5 56.75C14.5833 57.5833 15.7292 58 16.9375 58C17.8542 58 18.7292 57.75 19.5625 57.25C20.3958 56.75 21.1042 56.0625 21.6875 55.1875C22.2708 54.3125 22.7292 53.25 23.0625 52C23.4375 50.75 23.625 49.375 23.625 47.875C23.625 46.5 23.5833 45.4375 23.5 44.6875C23.4583 43.8958 23.3958 43.3125 23.3125 42.9375C23.2708 42.5208 23.2083 42.2708 23.125 42.1875C23.0833 42.1042 23.0625 42.0625 23.0625 42.0625C23.1042 42.0625 23.4375 42.0833 24.0625 42.125C24.6875 42.1667 25.375 42.2708 26.125 42.4375C26.9167 42.5625 27.6458 42.7917 28.3125 43.125C28.9792 43.4167 29.4167 43.8333 29.625 44.375C29.7917 44.9167 29.8958 45.9375 29.9375 47.4375C29.9792 48.8958 29.9583 50.5208 29.875 52.3125C29.8333 54.0625 29.7708 55.8125 29.6875 57.5625C29.6458 59.3125 29.625 60.75 29.625 61.875C29.625 62.1667 29.3333 62.5 28.75 62.875C28.2083 63.25 27.5833 63.5625 26.875 63.8125C26.2083 64.1042 25.5833 64.2708 25 64.3125C24.4167 64.3542 24.1042 64.2083 24.0625 63.875V59.9375V57.9375C23.3958 59.2708 22.3958 60.4583 21.0625 61.5C19.7292 62.5833 17.9375 63.125 15.6875 63.125ZM35.25 35.875C35.25 35.625 35.5833 35.3542 36.25 35.0625C36.9167 34.7708 37.6458 34.5417 38.4375 34.375C39.2708 34.1667 40.0208 34.0625 40.6875 34.0625C41.3958 34.0208 41.75 34.1667 41.75 34.5C41.75 35.125 41.7083 36.0208 41.625 37.1875C41.5417 38.3125 41.4375 39.5208 41.3125 40.8125C41.1875 42.0625 41.0625 43.3333 40.9375 44.625C40.8125 45.875 40.7292 46.9375 40.6875 47.8125C40.6042 48.7292 40.5208 49.7292 40.4375 50.8125C40.3542 51.7292 40.2917 52.75 40.25 53.875C40.2083 55 40.2083 56.1458 40.25 57.3125C40.25 57.5208 40.0417 57.7292 39.625 57.9375C39.2083 58.1458 38.75 58.2917 38.25 58.375C37.75 58.5 37.2708 58.5625 36.8125 58.5625C36.3542 58.5625 36.1042 58.4792 36.0625 58.3125C35.9792 58.1458 35.8958 57.8542 35.8125 57.4375C35.7292 57.0208 35.6458 56.4375 35.5625 55.6875C35.4792 54.8958 35.4167 53.8958 35.375 52.6875C35.3333 51.4375 35.3542 49.9375 35.4375 48.1875C35.6042 44.7292 35.625 42.0625 35.5 40.1875C35.375 38.2708 35.2917 36.8333 35.25 35.875ZM39.625 23.4375C40.4583 23.4375 41.25 23.6875 42 24.1875C42.75 24.6875 43.125 25.3542 43.125 26.1875C43.125 26.8125 42.9583 27.4167 42.625 28C42.3333 28.5833 41.9583 29.1042 41.5 29.5625C41.0417 30.0208 40.5208 30.3958 39.9375 30.6875C39.3542 30.9375 38.8125 31.0625 38.3125 31.0625C37.6458 31.0625 37.1042 30.9583 36.6875 30.75C36.2708 30.5 35.9375 30.2292 35.6875 29.9375C35.4792 29.6042 35.3333 29.25 35.25 28.875C35.1667 28.5 35.125 28.1458 35.125 27.8125C35.125 27.3958 35.1875 26.9375 35.3125 26.4375C35.4375 25.8958 35.6667 25.4167 36 25C36.3333 24.5417 36.7917 24.1667 37.375 23.875C37.9583 23.5833 38.7083 23.4375 39.625 23.4375ZM38.0625 29.25C38.3125 29.25 38.5833 29.1667 38.875 29C39.2083 28.7917 39.5 28.5625 39.75 28.3125C40.0417 28.0625 40.2708 27.7917 40.4375 27.5C40.6458 27.2083 40.75 26.9583 40.75 26.75C40.75 26.4167 40.5833 26.25 40.25 26.25C40.0417 26.25 39.7708 26.3333 39.4375 26.5C39.1458 26.6667 38.8542 26.875 38.5625 27.125C38.2708 27.3333 38.0208 27.5833 37.8125 27.875C37.6458 28.125 37.5625 28.375 37.5625 28.625C37.5625 29.0417 37.7292 29.25 38.0625 29.25ZM52.9375 58.5625C52.0625 58.5625 51.1667 58.3333 50.25 57.875C49.3333 57.4167 48.4792 56.7292 47.6875 55.8125C46.8958 54.8542 46.25 53.6875 45.75 52.3125C45.25 50.8958 45 49.25 45 47.375C45 44.625 45.3542 42.3542 46.0625 40.5625C46.7708 38.7292 47.625 37.2708 48.625 36.1875C49.6667 35.0625 50.7917 34.2708 52 33.8125C53.2083 33.3542 54.3125 33.125 55.3125 33.125C56.3542 33.125 57.2083 33.3125 57.875 33.6875C58.5833 34.0208 59.1667 34.4167 59.625 34.875V33.6875C59.875 33.4792 60.1458 33.2917 60.4375 33.125C60.7708 32.9583 61.1042 32.8333 61.4375 32.75C61.7708 32.625 62.125 32.5625 62.5 32.5625H63.4375C63.6875 32.6042 63.9375 32.6458 64.1875 32.6875C64.4792 32.7292 64.6875 32.8333 64.8125 33C64.5625 38.4583 64.3542 42.875 64.1875 46.25C64.0208 49.625 63.8958 52.25 63.8125 54.125C63.6875 56.3333 63.6042 57.9375 63.5625 58.9375C63.4792 60.6875 63.25 62.4167 62.875 64.125C62.5 65.875 61.9167 67.4375 61.125 68.8125C60.3333 70.1875 59.2917 71.2917 58 72.125C56.7083 72.9583 55.125 73.375 53.25 73.375C51.625 73.375 50.3125 73.0625 49.3125 72.4375C48.3542 71.8125 47.6042 71.0417 47.0625 70.125C46.5625 69.2083 46.2292 68.2292 46.0625 67.1875C45.8958 66.1875 45.8125 65.2708 45.8125 64.4375C45.8125 64.2292 45.9167 63.9167 46.125 63.5C46.375 63.0833 46.7083 62.6458 47.125 62.1875C47.5833 61.7708 48.1458 61.3958 48.8125 61.0625C49.4792 60.7292 50.2292 60.5208 51.0625 60.4375C50.6875 61.5625 50.4583 62.5833 50.375 63.5C50.2917 64 50.2708 64.5 50.3125 65C50.3125 66.375 50.5833 67.5208 51.125 68.4375C51.6667 69.3542 52.5 69.8125 53.625 69.8125C54.8333 69.8125 55.8125 69.2917 56.5625 68.25C57.3125 67.25 57.875 66.0208 58.25 64.5625C58.6667 63.1458 58.9375 61.6458 59.0625 60.0625C59.2292 58.5208 59.3125 57.2083 59.3125 56.125V54.3125C59.0625 54.7708 58.75 55.25 58.375 55.75C58.0417 56.25 57.625 56.7083 57.125 57.125C56.625 57.5417 56.0208 57.875 55.3125 58.125C54.6458 58.4167 53.8542 58.5625 52.9375 58.5625ZM55.5 36.6875C54.7917 36.6875 54.1042 37 53.4375 37.625C52.8125 38.25 52.25 39.0833 51.75 40.125C51.25 41.125 50.8542 42.2708 50.5625 43.5625C50.2708 44.8542 50.125 46.1458 50.125 47.4375C50.125 48.2708 50.1667 49.125 50.25 50C50.375 50.875 50.5833 51.6875 50.875 52.4375C51.2083 53.1458 51.625 53.7292 52.125 54.1875C52.625 54.6458 53.2917 54.875 54.125 54.875C54.75 54.8333 55.3333 54.5833 55.875 54.125C56.3333 53.75 56.7917 53.1458 57.25 52.3125C57.75 51.4792 58.1458 50.2917 58.4375 48.75C58.7708 49.0833 59.0208 49.3958 59.1875 49.6875C59.3958 49.9792 59.5625 50.25 59.6875 50.5C59.7292 50.1667 59.75 49.7708 59.75 49.3125C59.7917 48.8542 59.8125 48.3333 59.8125 47.75C59.8125 46.625 59.75 45.4167 59.625 44.125C59.5 42.7917 59.2708 41.5833 58.9375 40.5C58.6458 39.4167 58.2083 38.5208 57.625 37.8125C57.0833 37.0625 56.375 36.6875 55.5 36.6875ZM90.625 46.6875C89.9167 47.2708 89.5208 48.3125 89.4375 49.8125C89.3958 51.2708 89.6458 52.7708 90.1875 54.3125C90.7708 55.8125 91.6458 57.1458 92.8125 58.3125C93.9792 59.4792 95.4375 60.0625 97.1875 60.0625C98.3125 60.0625 99.2708 59.7917 100.062 59.25C100.896 58.7083 101.562 58.0417 102.062 57.25C102.604 56.4167 103 55.5 103.25 54.5C103.5 53.5 103.625 52.5208 103.625 51.5625C103.625 50.1875 103.354 49.0417 102.812 48.125C102.312 47.2083 101.625 46.4167 100.75 45.75C99.9167 45.0417 98.9375 44.4583 97.8125 44C96.7292 43.5 95.625 43 94.5 42.5C93.4583 42.0833 92.2083 41.5625 90.75 40.9375C89.2917 40.2708 87.8958 39.4167 86.5625 38.375C85.2292 37.2917 84.0833 35.9792 83.125 34.4375C82.2083 32.8542 81.75 30.9167 81.75 28.625C81.75 27.125 82.1458 25.6042 82.9375 24.0625C83.7292 22.5208 84.8542 21.125 86.3125 19.875C87.7708 18.5833 89.5208 17.5417 91.5625 16.75C93.6458 15.9583 95.9792 15.5625 98.5625 15.5625C101.104 15.5625 103.167 15.7917 104.75 16.25C106.333 16.7083 107.562 17.3125 108.438 18.0625C109.312 18.7708 109.896 19.5625 110.188 20.4375C110.521 21.2708 110.688 22.0625 110.688 22.8125C110.688 23.5625 110.458 24.3333 110 25.125C109.542 25.875 109 26.5833 108.375 27.25C107.75 27.875 107.104 28.4375 106.438 28.9375C105.771 29.3958 105.229 29.7083 104.812 29.875C105.021 29.3333 105.229 28.5833 105.438 27.625C105.646 26.6667 105.583 25.7083 105.25 24.75C104.958 23.7917 104.229 22.9583 103.062 22.25C101.938 21.5417 100.104 21.1875 97.5625 21.1875C96.1042 21.1875 94.6875 21.4167 93.3125 21.875C91.9375 22.3333 90.7083 22.9375 89.625 23.6875C88.5833 24.3958 87.75 25.2083 87.125 26.125C86.5 27.0417 86.1875 27.9792 86.1875 28.9375C86.1875 29.8542 86.5 30.7083 87.125 31.5C87.7917 32.25 88.6667 32.9792 89.75 33.6875C90.875 34.3542 92.1458 35.0208 93.5625 35.6875C95.0208 36.3542 96.5417 37.0208 98.125 37.6875C99.6667 38.3542 101.188 39.0833 102.688 39.875C104.188 40.625 105.521 41.5 106.688 42.5C107.896 43.5 108.854 44.625 109.562 45.875C110.271 47.125 110.625 48.5625 110.625 50.1875C110.625 51.9375 110.292 53.625 109.625 55.25C109 56.8333 108.083 58.2292 106.875 59.4375C105.708 60.6458 104.271 61.6042 102.562 62.3125C100.854 63.0625 98.9167 63.4375 96.75 63.4375C94.8333 63.4375 93.0208 63.125 91.3125 62.5C89.6042 61.875 88.1042 61.0625 86.8125 60.0625C85.5625 59.0625 84.5625 57.9583 83.8125 56.75C83.0625 55.5417 82.6875 54.3542 82.6875 53.1875C82.6875 51.9375 82.9583 50.875 83.5 50C84.0833 49.125 84.7917 48.4375 85.625 47.9375C86.4583 47.3958 87.3125 47.0208 88.1875 46.8125C89.1042 46.6042 89.9167 46.5625 90.625 46.6875ZM126.812 33.25C127.979 33.25 129.062 33.5833 130.062 34.25C131.062 34.9167 131.917 35.7917 132.625 36.875C133.333 37.9583 133.896 39.2083 134.312 40.625C134.729 42 134.938 43.4375 134.938 44.9375C134.938 46.4375 134.771 48.0208 134.438 49.6875C134.104 51.3542 133.583 52.8958 132.875 54.3125C132.167 55.7292 131.25 56.9167 130.125 57.875C129 58.7917 127.625 59.25 126 59.25C124.708 59.25 123.479 58.7917 122.312 57.875C121.188 56.9167 120.312 55.7292 119.688 54.3125C119.604 55.7708 119.417 57.25 119.125 58.75C118.833 60.2917 118.688 62.125 118.688 64.25C118.688 64.875 118.708 65.5833 118.75 66.375C118.792 67.1667 118.854 67.9583 118.938 68.75C119.021 69.5417 119.146 70.2708 119.312 70.9375C119.479 71.6042 119.667 72.125 119.875 72.5C119.167 72.9167 118.521 73.2292 117.938 73.4375C117.396 73.6458 116.917 73.7917 116.5 73.875C116.042 74 115.604 74.0625 115.188 74.0625C114.646 74.0625 114.292 73.8333 114.125 73.375C113.958 72.9167 113.875 72.1042 113.875 70.9375C113.875 70.1875 113.896 69.1042 113.938 67.6875C114.021 66.3125 114.104 64.7292 114.188 62.9375C114.312 61.1458 114.417 59.2708 114.5 57.3125C114.625 55.3125 114.729 53.3542 114.812 51.4375C114.938 49.5208 115.021 47.75 115.062 46.125C115.146 44.4583 115.188 43.0625 115.188 41.9375C115.188 40.5625 115.167 39.5 115.125 38.75C115.083 37.9583 115.021 37.375 114.938 37C114.896 36.5833 114.833 36.2917 114.75 36.125C114.667 35.9583 114.562 35.7708 114.438 35.5625C114.812 35.2708 115.25 35.0208 115.75 34.8125C116.292 34.5625 116.812 34.3958 117.312 34.3125C117.854 34.1875 118.333 34.1458 118.75 34.1875C119.208 34.2292 119.562 34.3333 119.812 34.5C120.021 34.7083 120.167 35.0208 120.25 35.4375C120.375 35.8542 120.479 36.4792 120.562 37.3125C121.354 36.2292 122.25 35.2917 123.25 34.5C124.292 33.6667 125.479 33.25 126.812 33.25ZM124.375 55.5625C125.125 55.5625 125.833 55.2083 126.5 54.5C127.208 53.7917 127.812 52.8958 128.312 51.8125C128.854 50.6875 129.271 49.4583 129.562 48.125C129.896 46.75 130.062 45.3958 130.062 44.0625C130.062 42.6042 129.917 41.4167 129.625 40.5C129.375 39.5417 129.042 38.7917 128.625 38.25C128.25 37.6667 127.833 37.2708 127.375 37.0625C126.958 36.8125 126.583 36.6875 126.25 36.6875C125.458 36.6875 124.708 37.0208 124 37.6875C123.292 38.3125 122.667 39.1458 122.125 40.1875C121.583 41.1875 121.146 42.3125 120.812 43.5625C120.521 44.8125 120.375 46.0625 120.375 47.3125C120.375 48.4792 120.479 49.5625 120.688 50.5625C120.938 51.5625 121.25 52.4375 121.625 53.1875C122 53.9375 122.417 54.5208 122.875 54.9375C123.375 55.3542 123.875 55.5625 124.375 55.5625ZM155.812 47.25C155.729 48.875 155.438 50.375 154.938 51.75C154.479 53.125 153.833 54.3333 153 55.375C152.167 56.375 151.167 57.1667 150 57.75C148.875 58.3333 147.625 58.6458 146.25 58.6875C145.042 58.7292 143.896 58.4375 142.812 57.8125C141.771 57.1875 140.854 56.3125 140.062 55.1875C139.271 54.0625 138.667 52.7292 138.25 51.1875C137.875 49.6042 137.771 47.8958 137.938 46.0625C138.062 43.9375 138.458 42.125 139.125 40.625C139.792 39.0833 140.5 37.8125 141.25 36.8125C142 35.8125 142.688 35.0833 143.312 34.625C143.979 34.125 144.396 33.8333 144.562 33.75C144.854 33.625 145.125 33.6042 145.375 33.6875C145.625 33.7292 145.896 33.7917 146.188 33.875C146.271 33.9167 146.354 34.0208 146.438 34.1875C146.604 34.4792 146.708 35.0208 146.75 35.8125C146.958 35.3542 147.229 34.9792 147.562 34.6875C147.896 34.3958 148.229 34.1875 148.562 34.0625C148.979 33.8958 149.396 33.7917 149.812 33.75C150.104 33.7083 150.604 33.9375 151.312 34.4375C152.062 34.9375 152.771 35.7292 153.438 36.8125C154.146 37.8958 154.75 39.3125 155.25 41.0625C155.75 42.7708 155.938 44.8333 155.812 47.25ZM151.562 46.5C151.604 45.5 151.562 44.5 151.438 43.5C151.354 42.4583 151.188 41.5208 150.938 40.6875C150.729 39.8125 150.458 39.125 150.125 38.625C149.792 38.0833 149.458 37.8125 149.125 37.8125C148.75 37.8958 148.333 38.0833 147.875 38.375C147.5 38.625 147.083 39.0208 146.625 39.5625C146.167 40.1042 145.729 40.875 145.312 41.875C145.271 41.75 145.229 41.5208 145.188 41.1875C145.146 40.8958 145.104 40.5208 145.062 40.0625C145.062 39.5625 145.104 38.8958 145.188 38.0625C144.604 38.7708 144.146 39.6042 143.812 40.5625C143.521 41.5208 143.292 42.4375 143.125 43.3125C142.958 44.3542 142.833 45.3958 142.75 46.4375C142.708 47.5625 142.75 48.6667 142.875 49.75C143.042 50.8333 143.292 51.7917 143.625 52.625C144 53.4583 144.438 54.125 144.938 54.625C145.438 55.125 146.042 55.3542 146.75 55.3125C147.458 55.2708 148.083 54.9792 148.625 54.4375C149.167 53.8958 149.646 53.2083 150.062 52.375C150.479 51.5417 150.812 50.6042 151.062 49.5625C151.312 48.5208 151.479 47.5 151.562 46.5ZM182.688 30.1875C182.229 30.1042 181.604 30.0208 180.812 29.9375C180.062 29.8542 179.292 29.7917 178.5 29.75C177.583 29.7083 176.604 29.6875 175.562 29.6875C174.521 29.6042 173.208 29.6042 171.625 29.6875C170.083 29.7292 168.458 29.75 166.75 29.75C166.708 30.8333 166.625 31.9375 166.5 33.0625C166.417 34.1875 166.333 35.2917 166.25 36.375C166.042 38.375 165.854 40.4167 165.688 42.5C165.562 44.5833 165.5 46.5625 165.5 48.4375C165.5 50.3125 165.604 52.0208 165.812 53.5625C166.062 55.0625 166.5 56.25 167.125 57.125C166.625 57.5 166.083 57.7917 165.5 58C164.917 58.1667 164.396 58.2917 163.938 58.375C163.396 58.5 162.854 58.5625 162.312 58.5625C161.812 58.5625 161.396 58.3958 161.062 58.0625C160.729 57.7292 160.542 57.1458 160.5 56.3125C160.417 54.8958 160.396 53.4792 160.438 52.0625C160.521 50.6042 160.604 49.0833 160.688 47.5C160.812 45.9167 160.938 44.2292 161.062 42.4375C161.188 40.6042 161.312 38.6042 161.438 36.4375C161.562 34.1875 161.625 32 161.625 29.875C160.042 29.9167 158.708 29.9375 157.625 29.9375C156.542 29.9375 155.938 29.9167 155.812 29.875C155.688 29.7917 155.542 29.6042 155.375 29.3125C155.208 29.0625 155 28.6875 154.75 28.1875C154.458 27.6875 154.104 26.9792 153.688 26.0625C154.479 26.0625 155.354 26.0625 156.312 26.0625C157.229 26.0625 158.083 26.0417 158.875 26C159.792 25.9583 160.708 25.9167 161.625 25.875C161.583 25.2083 161.562 24.5 161.562 23.75C161.521 23.1667 161.5 22.5208 161.5 21.8125C161.5 21.0625 161.479 20.375 161.438 19.75C161.438 19.5 161.729 19.2083 162.312 18.875C162.938 18.5 163.604 18.1667 164.312 17.875C165.021 17.5833 165.667 17.3958 166.25 17.3125C166.875 17.2292 167.188 17.375 167.188 17.75C167.188 18.125 167.167 19.0417 167.125 20.5C167.125 21.9167 167.083 23.6458 167 25.6875C167.417 25.6875 167.729 25.6667 167.938 25.625C170.146 25.5417 171.917 25.4583 173.25 25.375C174.625 25.25 175.75 25.2292 176.625 25.3125C177.5 25.3958 178.271 25.6042 178.938 25.9375C179.604 26.2708 180.354 26.8125 181.188 27.5625C181.479 27.8125 181.729 28.0833 181.938 28.375C182.146 28.625 182.312 28.9167 182.438 29.25C182.604 29.5417 182.688 29.8542 182.688 30.1875Z" fill="#F9F9F9"/>
</svg>
